Coordinates
version=1
nRows=60
nColumns=12
inDegrees=yes

Units are S.I. units (second, meters, Newtons, ...)
Angles are in degrees

endheader
time	SC_y	SC_z	SC_x	AC_y	AC_z	AC_x	GH_y	GH_z	GH_yy	EL_x	PS_y
       0.0              -59.09          20.45           3.38          60.17         -15.23         -10.76          -60.6          84.95         -145.6          7.658          156.0
   0.02795              -59.09          20.45          3.391          60.17         -15.23         -10.75         -60.61          84.94         -145.6          7.661          156.0
    0.0559              -59.09          20.45          3.403          60.17         -15.23         -10.75         -60.62          84.92         -145.6          7.664          156.0
   0.08386              -59.09          20.45          3.416          60.18         -15.23         -10.75         -60.63          84.91         -145.5          7.668          156.0
    0.1118              -59.09          20.45           3.43          60.18         -15.23         -10.75         -60.65           84.9         -145.5          7.671          156.0
    0.1398              -59.09          20.44          3.445          60.18         -15.22         -10.75         -60.66          84.88         -145.5          7.675          156.0
    0.1677              -59.08          20.44           3.46          60.18         -15.22         -10.74         -60.68          84.87         -145.5          7.679          156.0
    0.1957              -59.08          20.44          3.477          60.18         -15.22         -10.74         -60.69          84.85         -145.5          7.684          156.0
    0.2236              -59.08          20.43          3.495          60.18         -15.22         -10.74         -60.71          84.83         -145.5          7.689          156.0
    0.2516              -59.08          20.43          3.514          60.19         -15.22         -10.74         -60.73          84.81         -145.4          7.694          155.9
    0.2795              -59.08          20.43          3.535          60.19         -15.22         -10.73         -60.75          84.79         -145.4          7.699          155.9
    0.3075              -59.07          20.42          3.557          60.19         -15.22         -10.73         -60.77          84.77         -145.4          7.705          155.9
    0.3354              -59.07          20.42          3.581          60.19         -15.21         -10.73          -60.8          84.75         -145.4          7.712          155.9
    0.3634              -59.07          20.42          3.607          60.19         -15.21         -10.72         -60.82          84.72         -145.3          7.719          155.9
    0.3913              -59.06          20.41          3.635           60.2         -15.21         -10.72         -60.85           84.7         -145.3          7.726          155.9
    0.4193              -59.06          20.41          3.665           60.2         -15.21         -10.71         -60.88          84.67         -145.3          7.734          155.8
    0.4472              -59.06           20.4          3.698           60.2          -15.2         -10.71         -60.91          84.63         -145.2          7.743          155.8
    0.4752              -59.05          20.39          3.734          60.21          -15.2          -10.7         -60.95           84.6         -145.2          7.753          155.8
    0.5031              -59.05          20.39          3.773          60.21          -15.2          -10.7         -60.99          84.56         -145.1          7.763          155.8
    0.5311              -59.04          20.38          3.816          60.21          -15.2         -10.69         -61.03          84.52         -145.1          7.775          155.8
     0.559              -59.03          20.37          3.864          60.22         -15.19         -10.68         -61.07          84.47         -145.0          7.788          155.7
     0.587              -59.03          20.36          3.916          60.22         -15.19         -10.67         -61.13          84.42         -145.0          7.801          155.7
     0.615              -59.02          20.35          3.973          60.23         -15.18         -10.66         -61.18          84.37         -144.9          7.817          155.7
    0.6429              -59.01          20.34          4.037          60.24         -15.18         -10.65         -61.24           84.3         -144.8          7.834          155.6
    0.6709               -59.0          20.33          4.107          60.24         -15.17         -10.64         -61.31          84.23         -144.8          7.853          155.6
    0.6988              -58.99          20.32          4.186          60.25         -15.17         -10.63         -61.39          84.16         -144.7          7.874          155.5
    0.7268              -58.98           20.3          4.274          60.26         -15.16         -10.62         -61.48          84.07         -144.6          7.898          155.5
    0.7547              -58.97          20.28          4.374          60.27         -15.15          -10.6         -61.58          83.97         -144.5          7.924          155.4
    0.7827              -58.96          20.26          4.486          60.28         -15.14         -10.59         -61.69          83.86         -144.3          7.955          155.4
    0.8106              -58.94          20.24          4.614          60.29         -15.13         -10.57         -61.81          83.74         -144.2          7.989          155.3
    0.8386              -58.92          20.22          4.759          60.31         -15.12         -10.54         -61.95           83.6         -144.0          8.028          155.2
    0.8665               -58.9          20.19          4.926          60.32         -15.11         -10.52         -62.12          83.43         -143.8          8.073          155.1
    0.8945              -58.88          20.16          5.119          60.34         -15.09         -10.49         -62.31          83.24         -143.6          8.124          155.0
    0.9224              -58.85          20.12          5.343          60.36         -15.07         -10.45         -62.53          83.02         -143.4          8.184          154.8
    0.9504              -58.82          20.07          5.605          60.39         -15.05         -10.41         -62.78          82.77         -143.1          8.255          154.7
    0.9783              -58.78          20.02          5.914          60.42         -15.03         -10.37         -63.09          82.46         -142.7          8.338          154.5
     1.006              -58.73          19.96          6.282          60.45          -15.0         -10.31         -63.45          82.11         -142.3          8.436          154.3
     1.034              -58.68          19.88          6.722           60.5         -14.96         -10.24         -63.88          81.67         -141.8          8.554          154.0
     1.062              -58.61          19.79          7.254          60.55         -14.92         -10.16          -64.4          81.15         -141.2          8.697          153.7
      1.09              -58.53          19.68          7.905          60.61         -14.87         -10.06         -65.04          80.52         -140.5          8.871          153.3
     1.118              -58.43          19.54          8.708          60.69         -14.81         -9.935         -65.83          79.73         -139.6          9.087          152.8
     1.146               -58.3          19.37          9.709          60.78         -14.73          -9.78         -66.81          78.75         -138.5          9.355          152.2
     1.174              -58.15          19.15          10.97          60.91         -14.63         -9.586         -68.05          77.51         -137.0          9.694          151.5
     1.202              -57.95          18.88          12.57          61.06          -14.5         -9.338         -69.63          75.94         -135.2          10.12          150.5
      1.23              -57.69          18.52          14.63          61.26         -14.34         -9.022         -71.64          73.93         -132.9          10.67          149.3
     1.258              -57.36          18.07          17.26          61.52         -14.13         -8.615         -74.23          71.36         -130.0          11.38          147.7
     1.286              -56.94          17.49          20.62          61.84         -13.86         -8.097         -77.53          68.06         -126.2          12.28          145.7
     1.314              -56.41          16.77          24.86          62.25         -13.53         -7.444         -81.69          63.92         -121.4          13.42          143.2
     1.342              -55.77          15.88          30.01          62.75         -13.12         -6.649         -86.75          58.87         -115.6           14.8          140.1
      1.37              -55.02          14.86          35.99          63.33         -12.64         -5.728         -92.62          53.02         -108.9           16.4          136.5
     1.398              -54.21          13.75          42.46          63.95         -12.13          -4.73         -98.97          46.68         -101.6          18.14          132.7
     1.426               -53.4          12.64          48.93          64.58         -11.62         -3.732         -105.3          40.35         -94.36          19.87          128.8
     1.454              -52.65          11.61           54.9          65.16         -11.14          -2.81         -111.2           34.5         -87.64          21.48          125.2
     1.481              -52.01          10.73          60.06          65.66         -10.73         -2.015         -116.3          29.45         -81.84          22.86          122.2
     1.509              -51.48           10.0          64.29          66.07          -10.4         -1.363         -120.4          25.31         -77.08          23.99          119.6
     1.537              -51.06          9.424          67.65          66.39         -10.13        -0.8438         -123.7          22.01          -73.3           24.9          117.6
     1.565              -50.73          8.972          70.29          66.65          -9.92        -0.4376         -126.3          19.44         -70.33           25.6          116.0
     1.593              -50.47           8.62          72.34          66.85         -9.757        -0.1211         -128.3          17.43         -68.03          26.15          114.8
     1.621              -50.27          8.345          73.94           67.0          -9.63         0.1262         -129.9          15.86         -66.22          26.58          113.9
     1.649              -50.12          8.128           75.2          67.12          -9.53         0.3208         -131.1          14.62          -64.8          26.92          113.1
